HIERARCHY
ROOT hip
{
  OFFSET 71.7236 85.3178 -43.2529
  CHANNELS 6 Xposition Yposition Zposition Zrotation Xrotation Yrotation
  JOINT abdomen
  {
    OFFSET 0 20.6881 -0.73152
    CHANNELS 3 Zrotation Xrotation Yrotation
    JOINT chest
    {
      OFFSET 0 11.7043 -0.48768
      CHANNELS 3 Zrotation Xrotation Yrotation
      JOINT neck
      {
        OFFSET 0 22.1894 -2.19456
        CHANNELS 3 Zrotation Xrotation Yrotation
        JOINT head
        {
          OFFSET -0.24384 7.07133 1.2192
          CHANNELS 3 Zrotation Xrotation Yrotation
          JOINT leftEye
          {
            OFFSET 4.14528 8.04674 8.04672
            CHANNELS 3 Zrotation Xrotation Yrotation
            End Site
            {
              OFFSET 1 0 0
            }
          }
          JOINT rightEye
          {
            OFFSET -3.6576 8.04674 8.04672
            CHANNELS 3 Zrotation Xrotation Yrotation
            End Site
            {
              OFFSET 1 0 0
            }
          }
        }
      }
      JOINT rCollar
      {
        OFFSET -2.68224 19.2634 -4.8768
        CHANNELS 3 Zrotation Xrotation Yrotation
        JOINT rShldr
        {
          OFFSET -8.77824 -1.95073 1.46304
          CHANNELS 3 Zrotation Xrotation Yrotation
          JOINT rForeArm
          {
            OFFSET -28.1742 -1.7115 0.48768
            CHANNELS 3 Zrotation Xrotation Yrotation
            JOINT rHand
            {
              OFFSET -22.5879 0.773209 7.07136
              CHANNELS 3 Zrotation Xrotation Yrotation
              JOINT rThumb1
              {
                OFFSET -1.2192 -0.487915 3.41376
                CHANNELS 3 Zrotation Xrotation Yrotation
                JOINT rThumb2
                {
                  OFFSET -3.37035 -0.52449 3.41376
                  CHANNELS 3 Zrotation Xrotation Yrotation
                  End Site
                  {
                    OFFSET -1.78271 -1.18214 1.43049
                  }
                }
              }
              JOINT rIndex1
              {
                OFFSET -7.75947 0.938293 5.60832
                CHANNELS 3 Zrotation Xrotation Yrotation
                JOINT rIndex2
                {
                  OFFSET -2.54057 -0.884171 1.56538
                  CHANNELS 3 Zrotation Xrotation Yrotation
                  End Site
                  {
                    OFFSET -1.62519 -0.234802 1.16502
                  }
                }
              }
              JOINT rMid1
              {
                OFFSET -8.24714 1.18213 3.41376
                CHANNELS 3 Zrotation Xrotation Yrotation
                JOINT rMid2
                {
                  OFFSET -3.10165 -0.590103 1.0647
                  CHANNELS 3 Zrotation Xrotation Yrotation
                  End Site
                  {
                    OFFSET -2.48547 -0.328903 0.83742
                  }
                }
              }
              JOINT rRing1
              {
                OFFSET -8.82822 0.546677 1.51678
                CHANNELS 3 Zrotation Xrotation Yrotation
                JOINT rRing2
                {
                  OFFSET -2.60934 -0.819778 -0.0198488
                  CHANNELS 3 Zrotation Xrotation Yrotation
                  End Site
                  {
                    OFFSET -2.33842 -0.294052 0.168128
                  }
                }
              }
              JOINT rPinky1
              {
                OFFSET -8.27202 -0.0477905 -0.4584
                CHANNELS 3 Zrotation Xrotation Yrotation
                JOINT rPinky2
                {
                  OFFSET -1.82734 -0.647385 -0.700984
                  CHANNELS 3 Zrotation Xrotation Yrotation
                  End Site
                  {
                    OFFSET -1.69225 -0.51767 -0.607171
                  }
                }
              }
            }
          }
        }
      }
      JOINT lCollar
      {
        OFFSET 2.68224 19.2634 -4.8768
        CHANNELS 3 Zrotation Xrotation Yrotation
        JOINT lShldr
        {
          OFFSET 8.77824 -1.95073 1.46304
          CHANNELS 3 Zrotation Xrotation Yrotation
          JOINT lForeArm
          {
            OFFSET 28.1742 -1.7115 0.48768
            CHANNELS 3 Zrotation Xrotation Yrotation
            JOINT lHand
            {
              OFFSET 22.5879 0.773209 7.07136
              CHANNELS 3 Zrotation Xrotation Yrotation
              JOINT lThumb1
              {
                OFFSET 1.2192 -0.487915 3.41376
                CHANNELS 3 Zrotation Xrotation Yrotation
                JOINT lThumb2
                {
                  OFFSET 3.37035 -0.52449 3.41376
                  CHANNELS 3 Zrotation Xrotation Yrotation
                  End Site
                  {
                    OFFSET 1.78271 -1.18214 1.43049
                  }
                }
              }
              JOINT lIndex1
              {
                OFFSET 7.75947 0.938293 5.60832
                CHANNELS 3 Zrotation Xrotation Yrotation
                JOINT lIndex2
                {
                  OFFSET 2.54057 -0.884171 1.56538
                  CHANNELS 3 Zrotation Xrotation Yrotation
                  End Site
                  {
                    OFFSET 1.62519 -0.234802 1.16502
                  }
                }
              }
              JOINT lMid1
              {
                OFFSET 8.24714 1.18213 3.41376
                CHANNELS 3 Zrotation Xrotation Yrotation
                JOINT lMid2
                {
                  OFFSET 3.10165 -0.590103 1.0647
                  CHANNELS 3 Zrotation Xrotation Yrotation
                  End Site
                  {
                    OFFSET 2.48547 -0.328903 0.83742
                  }
                }
              }
              JOINT lRing1
              {
                OFFSET 8.82822 0.546677 1.51678
                CHANNELS 3 Zrotation Xrotation Yrotation
                JOINT lRing2
                {
                  OFFSET 2.60934 -0.819778 -0.0198488
                  CHANNELS 3 Zrotation Xrotation Yrotation
                  End Site
                  {
                    OFFSET 2.33842 -0.294052 0.168128
                  }
                }
              }
              JOINT lPinky1
              {
                OFFSET 8.27202 -0.0477905 -0.4584
                CHANNELS 3 Zrotation Xrotation Yrotation
                JOINT lPinky2
                {
                  OFFSET 1.82734 -0.647385 -0.700984
                  CHANNELS 3 Zrotation Xrotation Yrotation
                  End Site
                  {
                    OFFSET 1.69225 -0.51767 -0.607171
                  }
                }
              }
            }
          }
        }
      }
    }
  }
  JOINT rButtock
  {
    OFFSET -8.77824 4.35084 1.2192
    CHANNELS 3 Zrotation Xrotation Yrotation
    JOINT rThigh
    {
      OFFSET 0 -1.70687 -2.19456
      CHANNELS 3 Zrotation Xrotation Yrotation
      JOINT rShin
      {
        OFFSET 0 -36.8199 0.73152
        CHANNELS 3 Zrotation Xrotation Yrotation
        JOINT rFoot
        {
          OFFSET 0.73152 -45.1104 -5.12064
          CHANNELS 3 Zrotation Xrotation Yrotation
          End Site
          {
            OFFSET -1.1221 -3.69964 12.103
          }
        }
      }
    }
  }
  JOINT lButtock
  {
    OFFSET 8.77824 4.35084 1.2192
    CHANNELS 3 Zrotation Xrotation Yrotation
    JOINT lThigh
    {
      OFFSET 0 -1.70687 -2.19456
      CHANNELS 3 Zrotation Xrotation Yrotation
      JOINT lShin
      {
        OFFSET 0 -36.8199 0.73152
        CHANNELS 3 Zrotation Xrotation Yrotation
        JOINT lFoot
        {
          OFFSET -0.73152 -45.1104 -5.12064
          CHANNELS 3 Zrotation Xrotation Yrotation
          End Site
          {
            OFFSET 1.1221 -3.69964 12.103
          }
        }
      }
    }
  }
}
MOTION
Frames:	6
Frame Time:	0.00833333
41.3503 85.2895 -42.9791 -5.31793 4.34872 54.6781 -10.7728 7.52115 -3.00642 -1.93851 3.72048 -0.940409 -9.78871 20.0201 -12.8256 6.07692 12.8584 -23.3471 -0 0 0 -0 0 0 3.09393e-013 -6.021e-013 -7.12395e-013 18.8407 -4.26688 1.26771 -28.049 -30.9125 68.7072 -1.26496 -30.1826 -4.68856 4.82871e-009 1.35568e-008 8.61426e-009 8.1428e-009 2.30189e-008 1.49701e-008 4.82871e-009 1.35568e-008 8.61425e-009 7.73091 5.47488 0.417314 4.82871e-009 1.35568e-008 8.61426e-009 2.90554 0.965183 0.102902 4.82871e-009 1.35568e-008 8.61426e-009 10.2786 0.731801 0.0259123 4.8287e-009 1.35568e-008 8.61427e-009 2.22167 -0.733487 -0.20892 3.09394e-013 -6.02137e-013 -7.12593e-013 -69.2287 10.5564 1.67299 16.1674 -8.84372 -30.0268 0.231532 13.5763 -1.94493 3.69103e-009 4.21903e-009 -2.99128e-009 6.34832e-009 7.31389e-009 -5.22445e-009 3.69103e-009 4.21903e-009 -2.99127e-009 -7.73091 5.47488 -0.417314 3.69103e-009 4.21903e-009 -2.99128e-009 -2.90554 0.965183 -0.102902 3.69102e-009 4.21903e-009 -2.99127e-009 -10.2786 0.731801 -0.0259123 3.69103e-009 4.21903e-009 -2.99127e-009 -2.22167 -0.733487 0.20892 -2.03217e-016 0 -3.88251e-019 -9.76651 -18.3435 0.328429 -0.229786 33.962 0.609761 -7.95468 -8.63236 -28.8254 2.03217e-016 0 3.88251e-019 -1.03483 -15.6195 3.4419 0.0277727 18.8366 -0.268476 2.85971 -9.74157 10.8552 
41.5225 85.2471 -43.0939 -5.30432 4.25232 54.7363 -10.6727 7.57312 -2.94906 -2.04581 3.72888 -0.92109 -9.88988 20.0691 -12.8412 6.28815 12.777 -23.4107 -0 0 0 -0 0 0 1.81356e-013 -3.11689e-013 -2.65715e-013 18.0471 -2.62781 1.26866 -28.0218 -30.7529 68.4645 -1.43962 -31.8818 -5.01777 2.54549e-009 8.02497e-009 5.62113e-009 4.27901e-009 1.36351e-008 9.75407e-009 2.5455e-009 8.02497e-009 5.62112e-009 7.73091 5.47488 0.417314 2.54549e-009 8.02497e-009 5.62113e-009 2.90554 0.965183 0.102902 2.5455e-009 8.02497e-009 5.62113e-009 10.2786 0.731801 0.0259123 2.54549e-009 8.02497e-009 5.62114e-009 2.22167 -0.733487 -0.20892 1.81338e-013 -3.11716e-013 -2.65911e-013 -68.9375 10.7333 1.24506 16.3434 -9.00982 -30.4017 0.233261 13.6222 -1.95179 2.04234e-009 2.7897e-009 -1.87225e-009 3.5119e-009 4.836e-009 -3.26662e-009 2.04234e-009 2.7897e-009 -1.87224e-009 -7.73091 5.47488 -0.417314 2.04234e-009 2.7897e-009 -1.87225e-009 -2.90554 0.965183 -0.102902 2.04233e-009 2.7897e-009 -1.87224e-009 -10.2786 0.731801 -0.0259123 2.04234e-009 2.7897e-009 -1.87224e-009 -2.22167 -0.733487 0.20892 -2.03217e-016 0 -3.88251e-019 -9.79149 -18.8336 0.272699 -0.244542 34.8045 0.617124 -7.75246 -8.14966 -28.8929 2.03217e-016 0 3.88251e-019 -1.01222 -15.6096 3.61171 0.0267037 18.9822 -0.269862 2.7876 -9.81014 10.526 
41.6441 85.2476 -43.1171 -5.36113 4.02959 54.78 -10.3828 7.64497 -2.88601 -2.20391 3.72296 -0.896763 -10.06 20.1021 -12.8485 6.54075 12.7606 -23.4667 -0 0 0 -0 0 0 -4.17746e-014 1.86993e-013 4.74791e-013 17.2792 -0.881652 1.29593 -28.0087 -30.6741 68.3394 -1.59678 -33.3535 -5.3102 -1.45656e-009 -2.03525e-009 -9.93228e-011 -2.48839e-009 -3.43576e-009 -2.06609e-010 -1.45656e-009 -2.03525e-009 -9.93419e-011 7.73091 5.47488 0.417314 -1.45656e-009 -2.03525e-009 -9.93228e-011 2.90554 0.965183 0.102902 -1.45656e-009 -2.03525e-009 -9.93219e-011 10.2786 0.731801 0.0259123 -1.45657e-009 -2.03525e-009 -9.93121e-011 2.22167 -0.733487 -0.20892 -4.18264e-014 1.86983e-013 4.74577e-013 -68.6973 10.7643 0.805907 16.5108 -9.17002 -30.7599 0.241158 13.8448 -1.98497 -9.40467e-010 4.36209e-011 2.18666e-010 -1.61938e-009 7.5054e-011 3.90616e-010 -9.4047e-010 4.36227e-011 2.18674e-010 -7.73091 5.47488 -0.417314 -9.40467e-010 4.36222e-011 2.18663e-010 -2.90554 0.965183 -0.102902 -9.40476e-010 4.36224e-011 2.18667e-010 -10.2786 0.731801 -0.0259123 -9.4046e-010 4.36249e-011 2.18662e-010 -2.22167 -0.733487 0.20892 -2.03217e-016 0 -3.88251e-019 -9.63477 -19.3094 0.249389 -0.259491 35.6051 0.620247 -7.46985 -7.49154 -29.0143 2.03217e-016 0 3.88251e-019 -0.791223 -15.6576 3.88735 0.0261522 19.2624 -0.273473 2.69606 -9.89286 10.097 
41.6852 85.2123 -43.113 -5.42629 3.77591 54.8267 -10.0594 7.74253 -2.82566 -2.35963 3.70904 -0.873562 -10.238 20.0445 -12.8531 6.72036 12.8859 -23.5007 -0 0 0 -0 0 0 -2.61076e-013 6.70379e-013 1.17515e-012 16.5748 0.662356 1.32666 -28.0003 -30.6186 68.2438 -1.71068 -34.3799 -5.51903 -5.34676e-009 -1.1946e-008 -5.80779e-009 -9.06487e-009 -2.0255e-008 -1.01442e-008 -5.34676e-009 -1.1946e-008 -5.80781e-009 7.73091 5.47488 0.417314 -5.34676e-009 -1.1946e-008 -5.80779e-009 2.90554 0.965183 0.102902 -5.34676e-009 -1.1946e-008 -5.80779e-009 10.2786 0.731801 0.0259123 -5.34677e-009 -1.1946e-008 -5.80778e-009 2.22167 -0.733487 -0.20892 -2.61161e-013 6.70385e-013 1.17491e-012 -68.4646 10.7727 0.370122 16.6771 -9.33142 -31.1165 0.248929 14.0599 -2.01709 -3.8328e-009 -2.70587e-009 2.29856e-009 -6.59459e-009 -4.69177e-009 4.0277e-009 -3.8328e-009 -2.70587e-009 2.29857e-009 -7.73091 5.47488 -0.417314 -3.8328e-009 -2.70587e-009 2.29856e-009 -2.90554 0.965183 -0.102902 -3.83281e-009 -2.70587e-009 2.29856e-009 -10.2786 0.731801 -0.0259123 -3.83279e-009 -2.70587e-009 2.29855e-009 -2.22167 -0.733487 0.20892 -2.03217e-016 0 -3.88251e-019 -9.423 -19.7844 0.262785 -0.274813 36.3962 0.622263 -7.16494 -6.77956 -29.1752 2.03217e-016 0 3.88251e-019 -0.52716 -15.7045 4.16643 0.0256738 19.5619 -0.27767 2.60441 -9.97745 9.66852 
41.7557 85.1131 -43.1983 -5.4378 3.58639 54.892 -9.85868 7.87162 -2.77638 -2.4598 3.69342 -0.857616 -10.3627 19.8218 -12.8611 6.71241 13.2296 -23.4985 -0 0 0 -0 0 0 -3.77626e-013 9.14899e-013 1.50137e-012 15.9748 1.69505 1.33732 -27.9857 -30.5275 68.0912 -1.75121 -34.7437 -5.59373 -7.29441e-009 -1.70293e-008 -8.76495e-009 -1.23559e-008 -2.88839e-008 -1.52911e-008 -7.2944e-009 -1.70293e-008 -8.76498e-009 7.73091 5.47488 0.417314 -7.29441e-009 -1.70293e-008 -8.76495e-009 2.90554 0.965183 0.102902 -7.2944e-009 -1.70293e-008 -8.76495e-009 10.2786 0.731801 0.0259123 -7.29441e-009 -1.70293e-008 -8.76494e-009 2.22167 -0.733487 -0.20892 -3.77731e-013 9.14914e-013 1.50112e-012 -68.1925 10.882 -0.0483841 16.8494 -9.50085 -31.487 0.249601 14.0831 -2.02052 -5.21008e-009 -4.14545e-009 3.38455e-009 -8.9628e-009 -7.18728e-009 5.92507e-009 -5.21008e-009 -4.14544e-009 3.38456e-009 -7.73091 5.47488 -0.417314 -5.21008e-009 -4.14544e-009 3.38454e-009 -2.90554 0.965183 -0.102902 -5.21008e-009 -4.14544e-009 3.38454e-009 -10.2786 0.731801 -0.0259123 -5.21007e-009 -4.14544e-009 3.38453e-009 -2.22167 -0.733487 0.20892 -2.03217e-016 0 -3.88251e-019 -9.28264 -20.2722 0.317236 -0.29092 37.2104 0.62646 -6.89746 -6.13419 -29.359 2.03217e-016 0 3.88251e-019 -0.376708 -15.6916 4.34617 0.0247637 19.7655 -0.280785 2.5328 -10.052 9.34118 
41.9072 85.0717 -43.3186 -5.37784 3.46635 54.9778 -9.81027 8.05794 -2.73918 -2.47855 3.67495 -0.850996 -10.4141 19.2816 -12.8774 6.39746 14.0203 -23.4406 -0 0 0 -0 0 0 -3.3599e-013 7.84737e-013 1.23209e-012 15.5194 2.00626 1.31527 -27.9598 -30.3755 67.8442 -1.65029 -33.9209 -5.42066 -6.14573e-009 -1.44542e-008 -7.37375e-009 -1.04096e-008 -2.4519e-008 -1.28657e-008 -6.14573e-009 -1.44542e-008 -7.37378e-009 7.73091 5.47488 0.417314 -6.14573e-009 -1.44542e-008 -7.37375e-009 2.90554 0.965183 0.102902 -6.14573e-009 -1.44542e-008 -7.37376e-009 10.2786 0.731801 0.0259123 -6.14574e-009 -1.44542e-008 -7.37375e-009 2.22167 -0.733487 -0.20892 -3.36091e-013 7.84746e-013 1.23185e-012 -67.8692 11.1347 -0.441297 17.0362 -9.68727 -31.8903 0.240227 13.8322 -1.98297 -4.16093e-009 -3.5327e-009 2.90664e-009 -7.15538e-009 -6.12403e-009 5.08457e-009 -4.16093e-009 -3.53269e-009 2.90664e-009 -7.73091 5.47488 -0.417314 -4.16093e-009 -3.53269e-009 2.90663e-009 -2.90554 0.965183 -0.102902 -4.16094e-009 -3.53269e-009 2.90663e-009 -10.2786 0.731801 -0.0259123 -4.16092e-009 -3.53269e-009 2.90662e-009 -2.22167 -0.733487 0.20892 -2.03217e-016 0 -3.88251e-019 -9.20847 -20.7662 0.460977 -0.307277 38.0573 0.636067 -6.77957 -5.70076 -29.682 2.03217e-016 0 3.88251e-019 -0.360303 -15.5846 4.40584 0.0231739 19.829 -0.282121 2.48633 -10.1134 9.13886 
